<svg width="197" height="21" viewBox="0 0 197 21" fill="none" xmlns="http://www.w3.org/2000/svg">
<g clip-path="url(#clip0_426_60)">
<path d="M144.034 4.76746C144.034 5.30936 143.972 5.75384 143.868 6.10698C143.764 6.44795 143.568 6.76456 143.292 7.05073C143.023 7.33082 142.716 7.54392 142.349 7.67787C141.999 7.81182 141.626 7.8788 141.215 7.8788C140.804 7.8788 140.449 7.80574 140.112 7.67178C139.769 7.52566 139.469 7.32473 139.193 7.06291C138.862 6.72803 138.641 6.30182 138.55 5.80255C138.494 5.49202 138.464 4.93186 138.464 4.10988C138.464 3.28791 138.494 2.74601 138.55 2.4294C138.648 1.91185 138.862 1.48564 139.193 1.15685C139.475 0.882861 139.769 0.675844 140.1 0.547981C140.425 0.414029 140.792 0.347054 141.215 0.347054C142.024 0.347054 142.686 0.584514 143.188 1.05335C143.635 1.47347 143.905 2.02754 144.015 2.6973H142.551C142.373 1.98492 141.926 1.62568 141.215 1.62568C140.823 1.62568 140.51 1.75964 140.277 2.02754C140.13 2.17976 140.032 2.39286 139.99 2.64859C139.94 2.9104 139.922 3.39141 139.922 4.09771C139.922 4.804 139.94 5.31545 139.983 5.56509C140.026 5.81472 140.13 6.02174 140.277 6.18614C140.504 6.43577 140.811 6.56973 141.215 6.56973C141.638 6.56973 141.993 6.42969 142.251 6.1496C142.361 6.02783 142.453 5.8817 142.502 5.70513C142.563 5.54073 142.588 5.35807 142.588 5.16932V4.88315H141.221V3.67149H144.034V4.75529V4.76746Z" fill="#DADADA"/>
<path d="M152.189 7.81183H150.498L149.058 4.8588H147.998V7.81183H146.546V0.401855H149.463C150.204 0.401855 150.805 0.633227 151.24 1.07161C151.669 1.50391 151.883 2.03363 151.883 2.67904C151.883 3.16613 151.742 3.57408 151.466 3.93331C151.227 4.24993 150.903 4.4813 150.517 4.61525L152.177 7.81183H152.189ZM150.431 2.67295C150.431 2.3746 150.339 2.13714 150.149 1.96057C149.959 1.79008 149.702 1.69875 149.377 1.69875H148.01V3.64105H149.377C149.695 3.64105 149.953 3.54364 150.143 3.37315C150.339 3.19658 150.437 2.96521 150.437 2.67295" fill="#DADADA"/>
<path d="M159.689 4.10988C159.689 4.91968 159.659 5.47985 159.604 5.78428C159.512 6.29573 159.291 6.72194 158.96 7.06291C158.678 7.33082 158.384 7.53174 158.066 7.67178C157.753 7.80574 157.373 7.87271 156.95 7.87271C156.528 7.87271 156.154 7.80574 155.823 7.67178C155.504 7.53174 155.204 7.33082 154.928 7.06291C154.585 6.72194 154.371 6.30182 154.279 5.79646C154.224 5.48593 154.187 4.91968 154.187 4.10988C154.187 3.30008 154.224 2.74601 154.279 2.4294C154.383 1.91186 154.591 1.48564 154.928 1.15685C155.204 0.88895 155.504 0.681934 155.823 0.547982C156.148 0.407941 156.534 0.340965 156.95 0.340965C157.367 0.340965 157.729 0.407941 158.053 0.547982C158.384 0.681934 158.678 0.882861 158.96 1.15685C159.297 1.48564 159.512 1.90577 159.598 2.42331C159.665 2.7521 159.696 3.31226 159.696 4.10988M158.237 4.10988C158.237 3.3975 158.219 2.92258 158.17 2.65468C158.121 2.40504 158.029 2.19194 157.876 2.02754C157.637 1.75964 157.33 1.63177 156.944 1.63177C156.748 1.63177 156.552 1.66831 156.405 1.73528C156.252 1.81444 156.123 1.89968 156.007 2.03363C155.854 2.18585 155.756 2.39895 155.719 2.66077C155.67 2.92258 155.645 3.3975 155.645 4.11597C155.645 4.83444 155.67 5.33372 155.707 5.57726C155.743 5.8269 155.854 6.02783 156.007 6.19223C156.234 6.45404 156.546 6.58799 156.944 6.58799C157.343 6.58799 157.637 6.45404 157.876 6.19223C158.023 6.03392 158.109 5.81472 158.164 5.53464C158.219 5.26065 158.237 4.77964 158.237 4.11597" fill="#DADADA"/>
<path d="M170.578 0.407944L168.587 7.81183H167.367L165.995 3.31226L164.622 7.81183H163.409L161.424 0.407944H162.943L164.089 5.07799L165.449 0.407944H166.54L167.9 5.07799L169.058 0.407944H170.578Z" fill="#DADADA"/>
<path d="M174.01 0.407944H172.551V7.81183H174.01V0.407944Z" fill="#DADADA"/>
<path d="M182.502 7.81183H181.197L178.25 3.26964V7.81183H176.798V0.407944H178.097L181.044 4.93795V0.407944H182.502V7.81183Z" fill="#DADADA"/>
<path d="M190.584 4.76746C190.584 5.30936 190.523 5.75384 190.431 6.10698C190.315 6.44795 190.119 6.76456 189.849 7.05073C189.58 7.33082 189.261 7.54392 188.906 7.67787C188.556 7.81182 188.17 7.8788 187.766 7.8788C187.361 7.8788 186.994 7.80574 186.663 7.67178C186.32 7.52566 186.019 7.32473 185.762 7.06291C185.419 6.72803 185.198 6.30182 185.1 5.80255C185.045 5.49202 185.027 4.93186 185.027 4.10988C185.027 3.28791 185.045 2.74601 185.1 2.4294C185.211 1.91185 185.419 1.48564 185.762 1.15685C186.032 0.882861 186.332 0.675844 186.651 0.547981C186.969 0.420118 187.349 0.347054 187.766 0.347054C188.581 0.347054 189.243 0.584514 189.751 1.05335C190.18 1.47347 190.462 2.02754 190.572 2.6973H189.102C188.93 1.98492 188.483 1.62568 187.766 1.62568C187.368 1.62568 187.055 1.75964 186.834 2.02754C186.687 2.17976 186.589 2.39286 186.54 2.64859C186.497 2.9104 186.473 3.39141 186.473 4.09771C186.473 4.804 186.497 5.31545 186.534 5.56509C186.583 5.81472 186.681 6.02174 186.834 6.18614C187.055 6.43577 187.368 6.56973 187.766 6.56973C188.201 6.56973 188.544 6.42969 188.807 6.1496C188.918 6.02783 189.004 5.8817 189.046 5.70513C189.102 5.54073 189.132 5.35807 189.132 5.16932V4.88315H187.766V3.67149H190.578V4.75529L190.584 4.76746Z" fill="#DADADA"/>
<path d="M143.519 14.8199H141.57V20.933H140.118V14.8199H138.176V13.5352H143.519V14.8199Z" fill="#DADADA"/>
<path d="M150.988 17.2311C150.988 18.047 150.97 18.601 150.915 18.9116C150.829 19.423 150.596 19.8431 150.247 20.1902C149.977 20.452 149.689 20.6529 149.358 20.793C149.046 20.933 148.666 21 148.249 21C147.833 21 147.453 20.933 147.122 20.793C146.797 20.6529 146.503 20.4581 146.227 20.1902C145.89 19.8431 145.676 19.423 145.578 18.9116C145.517 18.6132 145.498 18.047 145.498 17.2311C145.498 16.4152 145.517 15.8672 145.578 15.5506C145.676 15.027 145.89 14.6068 146.227 14.272C146.497 14.0101 146.797 13.8031 147.122 13.6631C147.453 13.5291 147.82 13.4622 148.249 13.4622C148.678 13.4622 149.028 13.5291 149.352 13.6631C149.677 13.8031 149.977 14.0101 150.247 14.272C150.584 14.6068 150.805 15.033 150.896 15.5445C150.964 15.8672 150.982 16.4274 150.982 17.2311M149.542 17.2311C149.542 16.5248 149.518 16.0438 149.463 15.7759C149.42 15.5262 149.322 15.3192 149.181 15.1487C148.942 14.8869 148.642 14.7469 148.243 14.7469C148.041 14.7469 147.857 14.7895 147.704 14.8565C147.545 14.9235 147.404 15.027 147.3 15.1548C147.153 15.3192 147.055 15.5262 147.006 15.782C146.963 16.0438 146.944 16.5309 146.944 17.2372C146.944 17.9435 146.963 18.4427 146.999 18.6924C147.042 18.942 147.153 19.1551 147.3 19.3195C147.526 19.5752 147.851 19.7092 148.243 19.7092C148.635 19.7092 148.942 19.5752 149.181 19.3195C149.309 19.1551 149.401 18.9359 149.463 18.6497C149.512 18.3818 149.542 17.913 149.542 17.2372" fill="#DADADA"/>
<path d="M158.844 17.8887C158.844 18.4306 158.783 18.8811 158.672 19.2221C158.574 19.5631 158.384 19.8858 158.102 20.1658C157.839 20.4398 157.526 20.6529 157.165 20.7869C156.816 20.9269 156.436 21 156.031 21C155.627 21 155.259 20.9269 154.922 20.7869C154.591 20.6468 154.285 20.4459 154.009 20.1841C153.666 19.837 153.452 19.423 153.366 18.9116C153.305 18.6132 153.28 18.047 153.28 17.225C153.28 16.403 153.305 15.8611 153.366 15.5506C153.464 15.033 153.678 14.6068 154.009 14.2659C154.297 14.0101 154.591 13.797 154.91 13.6631C155.247 13.5291 155.609 13.4622 156.031 13.4622C156.84 13.4622 157.496 13.6996 158.004 14.1745C158.446 14.6007 158.721 15.1487 158.832 15.8246H157.361C157.189 15.1122 156.748 14.7469 156.031 14.7469C155.633 14.7469 155.327 14.8808 155.1 15.1487C154.941 15.3131 154.855 15.5201 154.806 15.7759C154.757 16.0377 154.732 16.5187 154.732 17.225C154.732 17.9313 154.757 18.4427 154.8 18.6924C154.843 18.942 154.941 19.149 155.1 19.3195C155.321 19.5691 155.627 19.7031 156.031 19.7031C156.436 19.7031 156.81 19.5631 157.067 19.2891C157.171 19.1673 157.269 19.0212 157.318 18.8446C157.373 18.6741 157.404 18.4914 157.404 18.3088V18.0226H156.037V16.7988H158.85V17.8887H158.844Z" fill="#DADADA"/>
<path d="M166.264 20.933H161.356V13.5352H166.264V14.8199H162.808V16.5552H165.756V17.846H162.808V19.6422H166.264V20.933Z" fill="#DADADA"/>
<path d="M173.532 14.8199H171.577V20.933H170.131V14.8199H168.188V13.5352H173.532V14.8199Z" fill="#DADADA"/>
<path d="M181.191 20.933H179.745V17.84H177.214V20.933H175.762V13.5352H177.214V16.5552H179.745V13.5352H181.191V20.933Z" fill="#DADADA"/>
<path d="M188.887 20.933H183.973V13.5352H188.887V14.8199H185.431V16.5552H188.372V17.846H185.431V19.6422H188.887V20.933Z" fill="#DADADA"/>
<path d="M197 20.933H195.303L193.844 17.98H192.815V20.933H191.357V13.5291H194.279C195.015 13.5291 195.609 13.7544 196.05 14.1989C196.473 14.6251 196.681 15.1609 196.681 15.8063C196.681 16.2873 196.547 16.7074 196.277 17.0606C196.044 17.3772 195.725 17.5964 195.327 17.7425L196.994 20.9391L197 20.933ZM195.241 15.7941C195.241 15.4958 195.137 15.2583 194.953 15.0878C194.751 14.9052 194.494 14.8199 194.175 14.8199H192.815V16.7683H194.175C194.494 16.7683 194.745 16.677 194.941 16.5004C195.131 16.3239 195.241 16.0864 195.241 15.8002" fill="#DADADA"/>
<path d="M4.03804 0.353149H0V20.86H4.03804V0.353149Z" fill="#F49600"/>
<path d="M48.193 3.93332V20.86H44.1611V3.93332H38.7505V0.353149H53.5852V3.93332H48.193Z" fill="#F49600"/>
<path d="M95.3688 3.93332H91.6004V9.54712H95.3688C97.1948 9.54712 98.3529 8.4207 98.3529 6.7524C98.3529 5.08409 97.1948 3.93332 95.3688 3.93332ZM95.571 13.1395H91.6004V20.86H87.5746V0.353149H95.571C99.8358 0.353149 102.391 3.26356 102.391 6.7524C102.391 10.2412 99.8358 13.1395 95.571 13.1395Z" fill="#F49600"/>
<path d="M115.406 20.86C112.569 20.8417 109.983 20.1354 107.967 18.0957L110.167 15.4288C111.735 16.6587 113.549 17.2981 115.461 17.2981C117.955 17.2981 119.138 16.6405 119.266 14.7895C119.297 14.412 119.254 13.7422 118.874 13.2917C118.513 12.8046 117.722 12.3784 116.766 12.2383L114.144 11.8974C112.385 11.6477 110.97 10.9597 110.026 10.0464C109.15 9.1757 108.659 7.95187 108.659 6.22876C108.659 2.56335 111.411 -0.00608826 115.859 -0.00608826C118.702 -0.00608826 120.13 0.724558 122.158 2.24065L120.038 4.84053C118.506 3.68977 117.501 3.48884 115.743 3.48884C113.604 3.48884 112.428 4.40824 112.428 5.94868C112.428 6.39316 112.44 6.90461 112.838 7.40998C113.402 8.10409 113.972 8.34155 115.087 8.56074L117.618 8.86518C119.511 9.13308 120.933 9.84546 121.711 10.7344C122.814 11.9643 123.053 13.0542 123.053 14.6434C123.053 18.6193 119.726 20.9148 115.406 20.86Z" fill="#F49600"/>
<path d="M18.8238 8.56075L26.8202 20.86H30.607V0.353149H26.569V12.9081L18.3887 0.353149H14.798V20.86H18.8238V8.56075Z" fill="#F49600"/>
<path d="M69.6026 16.884C66.116 16.884 63.2974 14.0893 63.2974 10.6248C63.2974 7.16034 66.116 4.35344 69.6026 4.35344C73.0891 4.35344 75.9017 7.16643 75.9017 10.6248C75.9017 14.0832 73.0769 16.884 69.6026 16.884ZM69.6026 0.365326C63.8979 0.365326 59.2838 4.9684 59.2838 10.6309C59.2838 16.2934 63.8979 20.8843 69.6026 20.8843C75.3073 20.8843 79.9213 16.2812 79.9213 10.6309C79.9213 4.98058 75.3073 0.359238 69.6026 0.359238" fill="#F49600"/>
<path d="M127.367 5.61989C125.878 5.61989 124.665 4.40215 124.665 2.91041C124.665 1.41867 125.878 0.200928 127.367 0.200928C128.856 0.200928 130.106 1.40041 130.106 2.91041C130.106 4.42041 128.886 5.61989 127.367 5.61989ZM127.367 0.8098C126.196 0.8098 125.308 1.71093 125.308 2.91041C125.308 4.10989 126.196 5.01102 127.367 5.01102C128.537 5.01102 129.462 4.10989 129.462 2.91041C129.462 1.71093 128.562 0.8098 127.367 0.8098ZM127.869 4.35344L127.342 3.22702H127.03V4.35344H126.393V1.46738H127.569C128.157 1.46738 128.531 1.8875 128.531 2.38678C128.531 2.76428 128.28 3.02001 127.998 3.13569L128.598 4.35344H127.863H127.869ZM127.477 1.9971H127.03V2.75819H127.477C127.722 2.75819 127.882 2.58771 127.882 2.38678C127.882 2.18585 127.722 1.9971 127.477 1.9971Z" fill="#F49600"/>
</g>
<defs>
<clipPath id="clip0_426_60">
<rect width="197" height="21" fill="white"/>
</clipPath>
</defs>
</svg>
