<svg width="308" height="32" viewBox="0 0 308 32" fill="none" xmlns="http://www.w3.org/2000/svg">
<g clip-path="url(#clip0_61_362)">
<path d="M225.19 7.26467C225.19 8.09042 225.094 8.76772 224.931 9.30584C224.768 9.82541 224.462 10.3079 224.031 10.7439C223.609 11.1707 223.13 11.4955 222.555 11.6996C222.009 11.9037 221.425 12.0058 220.783 12.0058C220.141 12.0058 219.585 11.8944 219.058 11.6903C218.522 11.4676 218.053 11.1615 217.621 10.7625C217.104 10.2522 216.759 9.60274 216.616 8.84194C216.529 8.36876 216.481 7.51518 216.481 6.26264C216.481 5.01011 216.529 4.18436 216.616 3.7019C216.769 2.91327 217.104 2.2638 217.621 1.76279C218.062 1.34528 218.522 1.02982 219.039 0.834984C219.547 0.630867 220.122 0.528809 220.783 0.528809C222.047 0.528809 223.082 0.890653 223.868 1.60506C224.567 2.24525 224.989 3.08955 225.161 4.11014H222.871C222.594 3.0246 221.894 2.4772 220.783 2.4772C220.17 2.4772 219.681 2.68132 219.317 3.08955C219.087 3.3215 218.934 3.64623 218.867 4.03591C218.79 4.43487 218.762 5.16783 218.762 6.24409C218.762 7.32034 218.79 8.0997 218.857 8.4801C218.924 8.8605 219.087 9.17595 219.317 9.42646C219.672 9.80686 220.151 10.011 220.783 10.011C221.444 10.011 222 9.79758 222.402 9.37079C222.574 9.18523 222.718 8.96256 222.795 8.69349C222.891 8.44299 222.929 8.16464 222.929 7.87702V7.44096H220.792V5.59462H225.19V7.24612V7.26467Z" fill="#BBBBBB"/>
<path d="M237.941 11.9037H235.297L233.045 7.40384H231.388V11.9037H229.117V0.612305H233.678C234.837 0.612305 235.776 0.964871 236.456 1.63289C237.126 2.29163 237.462 3.09882 237.462 4.0823C237.462 4.82454 237.241 5.44617 236.81 5.99357C236.437 6.47603 235.929 6.8286 235.325 7.03272L237.922 11.9037H237.941ZM235.191 4.07302C235.191 3.61839 235.048 3.25655 234.751 2.98749C234.454 2.7277 234.051 2.58853 233.543 2.58853H231.407V5.54823H233.543C234.042 5.54823 234.444 5.39978 234.741 5.13999C235.048 4.87093 235.201 4.51836 235.201 4.07302" fill="#BBBBBB"/>
<path d="M249.667 6.26264C249.667 7.49662 249.619 8.3502 249.533 8.81411C249.389 9.59346 249.044 10.2429 248.527 10.7625C248.086 11.1707 247.626 11.4769 247.128 11.6903C246.64 11.8944 246.046 11.9965 245.385 11.9965C244.724 11.9965 244.139 11.8944 243.622 11.6903C243.124 11.4769 242.654 11.1707 242.223 10.7625C241.687 10.2429 241.351 9.60274 241.208 8.83266C241.121 8.35948 241.064 7.49662 241.064 6.26264C241.064 5.02866 241.121 4.18436 241.208 3.7019C241.371 2.91327 241.696 2.2638 242.223 1.76279C242.654 1.35456 243.124 1.0391 243.622 0.834985C244.13 0.62159 244.733 0.519531 245.385 0.519531C246.036 0.519531 246.601 0.62159 247.109 0.834985C247.626 1.0391 248.086 1.34528 248.527 1.76279C249.054 2.2638 249.389 2.90399 249.523 3.69262C249.629 4.19364 249.676 5.04722 249.676 6.26264M247.396 6.26264C247.396 5.17711 247.368 4.45342 247.291 4.04519C247.214 3.66479 247.071 3.34006 246.831 3.08955C246.458 2.68132 245.979 2.48648 245.375 2.48648C245.068 2.48648 244.762 2.54215 244.532 2.6442C244.292 2.76482 244.091 2.89471 243.909 3.09883C243.67 3.33078 243.516 3.65551 243.459 4.05447C243.382 4.45342 243.344 5.17711 243.344 6.27192C243.344 7.36673 243.382 8.12753 243.44 8.49865C243.497 8.87905 243.67 9.18523 243.909 9.43574C244.264 9.83469 244.752 10.0388 245.375 10.0388C245.998 10.0388 246.458 9.83469 246.831 9.43574C247.061 9.19451 247.195 8.8605 247.281 8.43371C247.368 8.0162 247.396 7.28323 247.396 6.27192" fill="#BBBBBB"/>
<path d="M266.691 0.621582L263.577 11.9037H261.671L259.525 5.04721L257.379 11.9037H255.482L252.378 0.621582H254.754L256.545 7.73785L258.672 0.621582H260.377L262.504 7.73785L264.315 0.621582H266.691Z" fill="#BBBBBB"/>
<path d="M272.055 0.621582H269.775V11.9037H272.055V0.621582Z" fill="#BBBBBB"/>
<path d="M285.334 11.9037H283.293L278.685 4.98227V11.9037H276.415V0.621582H278.446L283.054 7.52445V0.621582H285.334V11.9037Z" fill="#BBBBBB"/>
<path d="M297.97 7.26467C297.97 8.09042 297.874 8.76772 297.73 9.30584C297.548 9.82541 297.242 10.3079 296.82 10.7439C296.399 11.1707 295.9 11.4955 295.345 11.6996C294.799 11.9037 294.195 12.0058 293.563 12.0058C292.931 12.0058 292.356 11.8944 291.838 11.6903C291.302 11.4676 290.833 11.1615 290.43 10.7625C289.894 10.2522 289.549 9.60274 289.395 8.84194C289.309 8.36876 289.281 7.51518 289.281 6.26264C289.281 5.01011 289.309 4.18436 289.395 3.7019C289.568 2.91327 289.894 2.2638 290.43 1.76279C290.852 1.34528 291.321 1.02982 291.819 0.834984C292.317 0.640145 292.911 0.528809 293.563 0.528809C294.837 0.528809 295.872 0.890653 296.667 1.60506C297.337 2.24525 297.778 3.08955 297.951 4.11014H295.651C295.383 3.0246 294.684 2.4772 293.563 2.4772C292.94 2.4772 292.452 2.68132 292.107 3.08955C291.877 3.3215 291.723 3.64623 291.647 4.03591C291.58 4.43487 291.541 5.16783 291.541 6.24409C291.541 7.32034 291.58 8.0997 291.637 8.4801C291.714 8.8605 291.867 9.17595 292.107 9.42646C292.452 9.80686 292.94 10.011 293.563 10.011C294.243 10.011 294.78 9.79758 295.191 9.37079C295.364 9.18523 295.498 8.96256 295.565 8.69349C295.651 8.44299 295.699 8.16464 295.699 7.87702V7.44096H293.563V5.59462H297.96V7.24612L297.97 7.26467Z" fill="#BBBBBB"/>
<path d="M224.385 22.5828H221.338V31.898H219.068V22.5828H216.031V20.6251H224.385V22.5828Z" fill="#BBBBBB"/>
<path d="M236.063 26.2569C236.063 27.5002 236.034 28.3445 235.948 28.8176C235.814 29.597 235.45 30.2372 234.904 30.766C234.482 31.165 234.032 31.4712 233.515 31.6846C233.026 31.898 232.432 32 231.781 32C231.129 32 230.535 31.898 230.018 31.6846C229.51 31.4712 229.05 31.1743 228.619 30.766C228.092 30.2372 227.757 29.597 227.604 28.8176C227.508 28.363 227.479 27.5002 227.479 26.2569C227.479 25.0136 227.508 24.1786 227.604 23.6962C227.757 22.8983 228.092 22.2581 228.619 21.7478C229.041 21.3488 229.51 21.0334 230.018 20.82C230.535 20.6159 231.11 20.5138 231.781 20.5138C232.451 20.5138 232.997 20.6159 233.505 20.82C234.013 21.0334 234.482 21.3488 234.904 21.7478C235.431 22.2581 235.776 22.9075 235.919 23.6869C236.025 24.1786 236.053 25.0322 236.053 26.2569M233.802 26.2569C233.802 25.1807 233.764 24.4477 233.678 24.0395C233.611 23.6591 233.457 23.3436 233.237 23.0838C232.863 22.6849 232.394 22.4715 231.771 22.4715C231.455 22.4715 231.168 22.5364 230.928 22.6385C230.679 22.7405 230.459 22.8983 230.296 23.0931C230.066 23.3436 229.913 23.6591 229.836 24.0487C229.769 24.4477 229.74 25.1899 229.74 26.2662C229.74 27.3424 229.769 28.1032 229.826 28.4836C229.893 28.864 230.066 29.1888 230.296 29.4393C230.65 29.829 231.158 30.0331 231.771 30.0331C232.384 30.0331 232.863 29.829 233.237 29.4393C233.438 29.1888 233.582 28.8548 233.678 28.4187C233.754 28.0105 233.802 27.296 233.802 26.2662" fill="#BBBBBB"/>
<path d="M248.345 27.2589C248.345 28.0847 248.249 28.7713 248.076 29.2908C247.923 29.8104 247.626 30.3021 247.186 30.7289C246.774 31.1464 246.285 31.4712 245.72 31.6753C245.174 31.8887 244.58 32 243.947 32C243.315 32 242.74 31.8887 242.213 31.6753C241.696 31.4619 241.217 31.1557 240.786 30.7568C240.25 30.2279 239.914 29.597 239.78 28.8176C239.684 28.363 239.646 27.5002 239.646 26.2476C239.646 24.9951 239.684 24.1693 239.78 23.6962C239.933 22.9075 240.269 22.2581 240.786 21.7385C241.236 21.3488 241.696 21.0241 242.194 20.82C242.721 20.6159 243.286 20.5138 243.947 20.5138C245.212 20.5138 246.237 20.8756 247.032 21.5993C247.722 22.2488 248.153 23.0838 248.326 24.1137H246.026C245.758 23.0281 245.068 22.4715 243.947 22.4715C243.325 22.4715 242.846 22.6756 242.491 23.0838C242.242 23.3343 242.108 23.6498 242.031 24.0395C241.955 24.4384 241.916 25.1714 241.916 26.2476C241.916 27.3239 241.955 28.1032 242.022 28.4836C242.089 28.864 242.242 29.1795 242.491 29.4393C242.836 29.8197 243.315 30.0238 243.947 30.0238C244.58 30.0238 245.164 29.8104 245.566 29.3929C245.729 29.2073 245.883 28.9847 245.959 28.7156C246.045 28.4558 246.093 28.1775 246.093 27.8991V27.4631H243.957V25.5982H248.354V27.2589H248.345Z" fill="#BBBBBB"/>
<path d="M259.946 31.898H252.272V20.6251H259.946V22.5828H254.543V25.227H259.151V27.194H254.543V29.931H259.946V31.898Z" fill="#BBBBBB"/>
<path d="M271.308 22.5828H268.252V31.898H265.991V22.5828H262.954V20.6251H271.308V22.5828Z" fill="#BBBBBB"/>
<path d="M283.283 31.898H281.022V27.1847H277.066V31.898H274.795V20.6251H277.066V25.227H281.022V20.6251H283.283V31.898Z" fill="#BBBBBB"/>
<path d="M295.316 31.898H287.633V20.6251H295.316V22.5828H289.913V25.227H294.511V27.194H289.913V29.931H295.316V31.898Z" fill="#BBBBBB"/>
<path d="M308 31.898H305.346L303.066 27.3981H301.457V31.898H299.177V20.6158H303.746C304.896 20.6158 305.825 20.9591 306.515 21.6364C307.176 22.2859 307.502 23.1024 307.502 24.0858C307.502 24.8188 307.291 25.459 306.87 25.9971C306.506 26.4796 306.007 26.8136 305.385 27.0363L307.99 31.9072L308 31.898ZM305.251 24.0673C305.251 23.6127 305.088 23.2508 304.8 22.991C304.484 22.7127 304.082 22.5828 303.584 22.5828H301.457V25.5518H303.584C304.082 25.5518 304.475 25.4126 304.781 25.1435C305.078 24.8745 305.251 24.5126 305.251 24.0766" fill="#BBBBBB"/>
<path d="M6.31328 0.538086H0V31.7866H6.31328V0.538086Z" fill="#F49600"/>
<path d="M75.3474 5.99358V31.7866H69.0437V5.99358H60.5845V0.538086H83.7779V5.99358H75.3474Z" fill="#F49600"/>
<path d="M149.105 5.99358H143.213V14.5479H149.105C151.959 14.5479 153.77 12.8315 153.77 10.2893C153.77 7.74713 151.959 5.99358 149.105 5.99358ZM149.421 20.022H143.213V31.7866H136.919V0.538086H149.421C156.088 0.538086 160.083 4.97299 160.083 10.2893C160.083 15.6056 156.088 20.022 149.421 20.022Z" fill="#F49600"/>
<path d="M180.432 31.7866C175.996 31.7588 171.953 30.6825 168.801 27.5744L172.241 23.5106C174.693 25.3848 177.529 26.3589 180.518 26.3589C184.417 26.3589 186.266 25.3569 186.467 22.5364C186.515 21.9612 186.448 20.9406 185.854 20.254C185.289 19.5117 184.053 18.8623 182.558 18.6489L178.458 18.1293C175.709 17.7489 173.496 16.7005 172.02 15.3088C170.65 13.982 169.884 12.1171 169.884 9.49145C169.884 3.90606 174.185 -0.00927734 181.14 -0.00927734C185.586 -0.00927734 187.818 1.10409 190.989 3.41432L187.674 7.37605C185.279 5.6225 183.708 5.31632 180.958 5.31632C177.615 5.31632 175.776 6.71731 175.776 9.06466C175.776 9.74196 175.795 10.5213 176.417 11.2914C177.299 12.3491 178.19 12.7109 179.933 13.0449L183.89 13.5088C186.85 13.9171 189.073 15.0026 190.289 16.3572C192.014 18.2314 192.387 19.8921 192.387 22.3137C192.387 28.3723 187.185 31.8701 180.432 31.7866Z" fill="#F49600"/>
<path d="M29.4301 13.0449L41.9321 31.7866H47.8526V0.538086H41.5393V19.6694L28.7499 0.538086H23.136V31.7866H29.4301V13.0449Z" fill="#F49600"/>
<path d="M108.82 25.728C103.369 25.728 98.9625 21.4694 98.9625 16.1902C98.9625 10.9109 103.369 6.63376 108.82 6.63376C114.271 6.63376 118.669 10.9202 118.669 16.1902C118.669 21.4601 114.252 25.728 108.82 25.728ZM108.82 0.556641C99.9013 0.556641 92.6875 7.57085 92.6875 16.1994C92.6875 24.828 99.9013 31.8237 108.82 31.8237C117.739 31.8237 124.953 24.8095 124.953 16.1994C124.953 7.5894 117.739 0.547363 108.82 0.547363" fill="#F49600"/>
<path d="M199.132 8.56362C196.804 8.56362 194.907 6.70801 194.907 4.43489C194.907 2.16176 196.804 0.306152 199.132 0.306152C201.46 0.306152 203.414 2.13393 203.414 4.43489C203.414 6.73584 201.508 8.56362 199.132 8.56362ZM199.132 1.23396C197.302 1.23396 195.913 2.60711 195.913 4.43489C195.913 6.26266 197.302 7.63581 199.132 7.63581C200.962 7.63581 202.408 6.26266 202.408 4.43489C202.408 2.60711 201 1.23396 199.132 1.23396ZM199.917 6.63378L199.093 4.91734H198.605V6.63378H197.609V2.23599H199.448C200.368 2.23599 200.952 2.87617 200.952 3.63697C200.952 4.21221 200.559 4.60189 200.119 4.77817L201.057 6.63378H199.908H199.917ZM199.304 3.04318H198.605V4.20293H199.304C199.687 4.20293 199.937 3.94315 199.937 3.63697C199.937 3.3308 199.687 3.04318 199.304 3.04318Z" fill="#F49600"/>
</g>
<defs>
<clipPath id="clip0_61_362">
<rect width="308" height="32" fill="white"/>
</clipPath>
</defs>
</svg>
