<svg width="31" height="28" viewBox="0 0 31 28" fill="none" xmlns="http://www.w3.org/2000/svg">
<path d="M29.5822 6.78579C29.2441 5.49243 28.2481 4.47382 26.9835 4.12814C24.6914 3.5 15.5 3.5 15.5 3.5C15.5 3.5 6.30874 3.5 4.01652 4.12814C2.75192 4.47387 1.75594 5.49243 1.4179 6.78579C0.803711 9.13008 0.803711 14.0212 0.803711 14.0212C0.803711 14.0212 0.803711 18.9124 1.4179 21.2566C1.75594 22.55 2.75192 23.5262 4.01652 23.8719C6.30874 24.5 15.5 24.5 15.5 24.5C15.5 24.5 24.6913 24.5 26.9835 23.8719C28.2481 23.5262 29.2441 22.55 29.5822 21.2566C30.1963 18.9124 30.1963 14.0212 30.1963 14.0212C30.1963 14.0212 30.1963 9.13008 29.5822 6.78579ZM12.4939 18.462V9.58043L20.1761 14.0213L12.4939 18.462Z" fill="#BBBBBB"/>
</svg>
