<svg width="24" height="18" viewBox="0 0 24 18" fill="none" xmlns="http://www.w3.org/2000/svg">
<path d="M23.3 4.3C23.3 4.1 23 2.5 22.3 1.8C21.4 0.8 20.4 0.7 19.9 0.7H19.8C16.7 0.5 12.1 0.5 12 0.5C12 0.5 7.3 0.5 4.2 0.7H4.1C3.6 0.7 2.6 0.8 1.7 1.8C1 2.6 0.7 4.2 0.7 4.4C0.7 4.5 0.5 6.3 0.5 8.2V9.9C0.5 11.8 0.7 13.6 0.7 13.7C0.7 13.9 1 15.5 1.7 16.2C2.5 17.1 3.5 17.2 4.1 17.3C4.2 17.3 4.3 17.3 4.4 17.3C6.2 17.5 11.7 17.5 11.9 17.5C11.9 17.5 16.6 17.5 19.7 17.3H19.8C20.3 17.2 21.3 17.1 22.2 16.2C22.9 15.4 23.2 13.8 23.2 13.6C23.2 13.5 23.4 11.7 23.4 9.8V8.1C23.5 6.3 23.3 4.4 23.3 4.3ZM15.9 9.2L9.9 12.4C9.8 12.4 9.8 12.5 9.7 12.5C9.6 12.5 9.5 12.5 9.5 12.4C9.4 12.3 9.3 12.2 9.3 12V5.5C9.3 5.3 9.4 5.2 9.5 5.1C9.6 5 9.8 5 10 5.1L16 8.3C16.2 8.4 16.3 8.5 16.3 8.7C16.3 8.9 16.1 9.1 15.9 9.2Z" fill="white"/>
</svg>
